<svg width="47" height="47" viewBox="0 0 47 47" fill="none" xmlns="http://www.w3.org/2000/svg">
<path d="M23.5003 44.5519C19.3366 44.5519 15.2664 43.3172 11.8044 41.004C8.34243 38.6908 5.64413 35.4029 4.05075 31.5561C2.45736 27.7094 2.04046 23.4765 2.85276 19.3928C3.66506 15.3091 5.67008 11.558 8.61426 8.61378C11.5584 5.66959 15.3096 3.66457 19.3933 2.85227C23.477 2.03997 27.7099 2.45688 31.5566 4.05026C35.4034 5.64364 38.6913 8.34194 41.0045 11.8039C43.3177 15.2659 44.5524 19.3361 44.5524 23.4998C44.5462 29.0813 42.3262 34.4324 38.3795 38.379C34.4328 42.3257 29.0818 44.5457 23.5003 44.5519ZM23.5003 5.38526C19.9176 5.38526 16.4153 6.44766 13.4364 8.43812C10.4575 10.4286 8.13569 13.2577 6.76464 16.5677C5.39359 19.8777 5.03486 23.5199 5.73382 27.0338C6.43277 30.5477 8.15802 33.7754 10.6914 36.3088C13.2248 38.8422 16.4525 40.5674 19.9664 41.2664C23.4802 41.9653 27.1225 41.6066 30.4325 40.2355C33.7425 38.8645 36.5716 36.5427 38.5621 33.5638C40.5525 30.5848 41.6149 27.0826 41.6149 23.4998C41.6097 18.6972 39.6996 14.0926 36.3036 10.6966C32.9075 7.30061 28.303 5.39045 23.5003 5.38526Z" fill="url(#paint0_linear_212_1199)"/>
<path d="M23.4023 25.7964C21.9499 25.7964 20.5301 25.3657 19.3224 24.5587C18.1147 23.7518 17.1734 22.6049 16.6176 21.263C16.0618 19.9211 15.9163 18.4445 16.1997 17.0199C16.4831 15.5954 17.1825 14.2869 18.2095 13.2598C19.2366 12.2328 20.5451 11.5334 21.9697 11.25C23.3942 10.9666 24.8708 11.1121 26.2127 11.6679C27.5546 12.2237 28.7015 13.165 29.5085 14.3727C30.3154 15.5803 30.7461 17.0002 30.7461 18.4526C30.744 20.3997 29.9696 22.2664 28.5929 23.6432C27.2161 25.0199 25.3494 25.7943 23.4023 25.7964ZM23.4023 14.0464C22.5309 14.0464 21.679 14.3048 20.9544 14.789C20.2298 15.2731 19.665 15.9613 19.3315 16.7664C18.998 17.5716 18.9107 18.4575 19.0808 19.3123C19.2508 20.167 19.6704 20.9521 20.2867 21.5683C20.9029 22.1846 21.688 22.6042 22.5427 22.7742C23.3975 22.9442 24.2834 22.857 25.0885 22.5235C25.8937 22.19 26.5818 21.6252 27.066 20.9006C27.5502 20.176 27.8086 19.3241 27.8086 18.4526C27.8076 17.2843 27.343 16.1642 26.5169 15.3381C25.6908 14.512 24.5706 14.0474 23.4023 14.0464Z" fill="url(#paint1_linear_212_1199)"/>
<path d="M31.236 33.6297C30.8465 33.6297 30.4729 33.475 30.1974 33.1995C29.922 32.9241 29.7673 32.5505 29.7673 32.161C29.7673 30.473 29.0967 28.8541 27.9031 27.6605C26.7095 26.4669 25.0907 25.7964 23.4027 25.7964C21.7147 25.7964 20.0958 26.4669 18.9022 27.6605C17.7086 28.8541 17.0381 30.473 17.0381 32.161C17.0381 32.5505 16.8833 32.9241 16.6079 33.1995C16.3325 33.475 15.9589 33.6297 15.5693 33.6297C15.1798 33.6297 14.8062 33.475 14.5308 33.1995C14.2553 32.9241 14.1006 32.5505 14.1006 32.161C14.1006 29.6939 15.0806 27.3279 16.8251 25.5834C18.5696 23.8389 20.9356 22.8589 23.4027 22.8589C25.8697 22.8589 28.2358 23.8389 29.9802 25.5834C31.7247 27.3279 32.7048 29.6939 32.7048 32.161C32.7048 32.5505 32.55 32.9241 32.2746 33.1995C31.9991 33.475 31.6255 33.6297 31.236 33.6297Z" fill="url(#paint2_linear_212_1199)"/>
<path d="M23.4999 26.4907L24.2854 31.2597L29.0544 32.0453L24.2854 32.8308L23.4999 37.5998L22.7143 32.8308L17.9453 32.0453L22.7143 31.2597L23.4999 26.4907Z" fill="url(#paint3_linear_212_1199)"/>
<defs>
<linearGradient id="paint0_linear_212_1199" x1="-1.5873" y1="-15.5969" x2="51.7864" y2="-17.2486" gradientUnits="userSpaceOnUse">
<stop stop-color="#00B292"/>
<stop offset="0.290505" stop-color="#2DFFD9"/>
<stop offset="0.635914" stop-color="#54FFE0"/>
<stop offset="0.978018" stop-color="#03776F"/>
</linearGradient>
<linearGradient id="paint1_linear_212_1199" x1="14.6508" y1="4.81424" x2="31.7779" y2="5.50214" gradientUnits="userSpaceOnUse">
<stop stop-color="#00B292"/>
<stop offset="0.290505" stop-color="#2DFFD9"/>
<stop offset="0.635914" stop-color="#54FFE0"/>
<stop offset="0.978018" stop-color="#03776F"/>
</linearGradient>
<linearGradient id="paint2_linear_212_1199" x1="12.3174" y1="18.2428" x2="33.9426" y2="19.7431" gradientUnits="userSpaceOnUse">
<stop stop-color="#00B292"/>
<stop offset="0.290505" stop-color="#2DFFD9"/>
<stop offset="0.635914" stop-color="#54FFE0"/>
<stop offset="0.978018" stop-color="#03776F"/>
</linearGradient>
<linearGradient id="paint3_linear_212_1199" x1="16.8805" y1="21.7297" x2="29.8348" y2="22.25" gradientUnits="userSpaceOnUse">
<stop stop-color="#00B292"/>
<stop offset="0.290505" stop-color="#2DFFD9"/>
<stop offset="0.635914" stop-color="#54FFE0"/>
<stop offset="0.978018" stop-color="#03776F"/>
</linearGradient>
</defs>
</svg>
