<svg width="47" height="47" viewBox="0 0 47 47" fill="none" xmlns="http://www.w3.org/2000/svg">
<g clip-path="url(#clip0_212_1205)">
<path d="M15.3584 21.1582C15.6698 21.1587 15.9688 21.0348 16.189 20.8145C16.4093 20.5943 16.5332 20.2953 16.5327 19.9839C16.5327 19.3352 17.0588 18.8091 17.7075 18.8091C18.3562 18.8091 18.8823 19.3352 18.8823 19.9839C18.8823 20.6326 19.408 21.1582 20.0566 21.1582C20.7058 21.1582 21.2314 20.6326 21.2314 19.9839C21.2314 18.0374 19.6536 16.46 17.7075 16.46C15.7614 16.46 14.1836 18.0374 14.1836 19.9839C14.1836 20.2953 14.3071 20.5943 14.5273 20.8145C14.748 21.0348 15.0465 21.1587 15.3584 21.1582Z" fill="url(#paint0_linear_212_1205)"/>
<path d="M31.2783 28.9174C26.8914 31.1104 20.2716 31.1104 15.8839 28.9174C15.3036 28.627 14.5982 28.8623 14.3078 29.4426C14.0179 30.0229 14.2527 30.7288 14.833 31.0187C17.5672 32.3084 20.5585 32.9579 23.5809 32.9183C26.6032 32.9579 29.595 32.3079 32.3287 31.0187C32.909 30.7288 33.1443 30.0229 32.8544 29.4426C32.564 28.8623 31.8586 28.627 31.2783 28.9174Z" fill="url(#paint1_linear_212_1205)"/>
<path d="M43.5497 18.809H42.3749V15.2851C42.3719 12.0429 39.744 9.41504 36.5019 9.41203H32.9779V6.84609C34.5958 6.2744 35.5667 4.61955 35.2763 2.92814C34.986 1.2363 33.5195 0 31.8032 0C30.0868 0 28.6204 1.2363 28.33 2.92814C28.0396 4.61955 29.0105 6.2744 30.6284 6.84609V9.41203H16.5327V6.84609C18.151 6.2744 19.1214 4.61955 18.8315 2.92814C18.5411 1.2363 17.0747 0 15.3583 0C13.642 0 12.1751 1.2363 11.8852 2.92814C11.5948 4.61955 12.5653 6.2744 14.1836 6.84609V9.41203H10.6596C7.41749 9.41547 4.79003 12.0429 4.78659 15.2851V18.809H3.61181C1.6666 18.8111 0.0900414 20.3877 0.0878906 22.3329V27.0316C0.0900414 28.9768 1.6666 30.5534 3.61181 30.5555H4.78659V35.2538C4.79003 38.4964 7.41749 41.1238 10.6596 41.1273H16.5327V45.8256C16.5331 46.2527 16.765 46.6459 17.1384 46.8528C17.5118 47.0597 17.9682 47.0477 18.3299 46.8214L27.4417 41.1273H36.5019C39.744 41.1243 42.3719 38.4964 42.3749 35.2538V30.5555H43.5497C45.4949 30.5534 47.0715 28.9768 47.0736 27.0316V22.3329C47.0715 20.3877 45.4949 18.8111 43.5497 18.809ZM31.8032 2.36419C32.4518 2.36419 32.9779 2.88985 32.9779 3.53854C32.9779 4.18766 32.4518 4.71333 31.8032 4.71333C31.1545 4.71333 30.6284 4.18766 30.6284 3.53854C30.6297 2.89071 31.1549 2.36548 31.8032 2.36419ZM15.3583 2.36419C16.007 2.36419 16.5327 2.88985 16.5327 3.53854C16.5327 4.18766 16.007 4.71333 15.3583 4.71333C14.7097 4.71333 14.1836 4.18766 14.1836 3.53854C14.1844 2.89028 14.7097 2.36505 15.3583 2.36419ZM3.61181 28.206C2.96355 28.2055 2.43789 27.6799 2.43703 27.0316V22.3329C2.43789 21.6847 2.96355 21.159 3.61181 21.1581H4.78659V28.206H3.61181ZM40.0258 35.2538C40.0236 37.1994 38.4471 38.776 36.5019 38.7777H27.1045C26.8846 38.7777 26.6691 38.8397 26.4829 38.9567L18.8823 43.7057V39.9525C18.8823 39.6411 18.7588 39.3421 18.5381 39.1219C18.3179 38.9016 18.0189 38.7777 17.7075 38.7777H10.6596C8.71444 38.776 7.13788 37.1994 7.13573 35.2538V15.2851C7.13788 13.3399 8.71444 11.7633 10.6596 11.7612H36.5019C38.4471 11.7633 40.0236 13.3399 40.0258 15.2851V35.2538ZM44.724 27.0316C44.7232 27.6799 44.198 28.2051 43.5497 28.206H42.3749V21.1581H43.5497C44.198 21.1594 44.7232 21.6847 44.724 22.3329V27.0316Z" fill="url(#paint2_linear_212_1205)"/>
<path d="M29.4536 16.46C27.5084 16.4621 25.9318 18.0387 25.9297 19.9839C25.9297 20.6326 26.4554 21.1582 27.104 21.1582C27.7532 21.1582 28.2788 20.6326 28.2788 19.9839C28.2788 19.3352 28.8049 18.8091 29.4536 18.8091C30.1023 18.8091 30.628 19.3352 30.628 19.9839C30.628 20.6326 31.1541 21.1582 31.8027 21.1582C32.4514 21.1582 32.9775 20.6326 32.9775 19.9839C32.9754 18.0387 31.3988 16.4621 29.4536 16.46Z" fill="url(#paint3_linear_212_1205)"/>
</g>
<defs>
<linearGradient id="paint0_linear_212_1205" x1="13.5081" y1="14.4464" x2="21.71" y2="14.9406" gradientUnits="userSpaceOnUse">
<stop stop-color="#00B292"/>
<stop offset="0.290505" stop-color="#2DFFD9"/>
<stop offset="0.635914" stop-color="#54FFE0"/>
<stop offset="0.978018" stop-color="#03776F"/>
</linearGradient>
<linearGradient id="paint1_linear_212_1205" x1="12.3822" y1="27.0242" x2="33.6236" y2="30.9095" gradientUnits="userSpaceOnUse">
<stop stop-color="#00B292"/>
<stop offset="0.290505" stop-color="#2DFFD9"/>
<stop offset="0.635914" stop-color="#54FFE0"/>
<stop offset="0.978018" stop-color="#03776F"/>
</linearGradient>
<linearGradient id="paint2_linear_212_1205" x1="-12.8181" y1="-8.11821" x2="48.3008" y2="-23.7679" gradientUnits="userSpaceOnUse">
<stop stop-color="#00B292"/>
<stop offset="0.290505" stop-color="#2DFFD9"/>
<stop offset="0.635914" stop-color="#54FFE0"/>
<stop offset="0.978018" stop-color="#03776F"/>
</linearGradient>
<linearGradient id="paint3_linear_212_1205" x1="25.2542" y1="14.4464" x2="33.4561" y2="14.9406" gradientUnits="userSpaceOnUse">
<stop stop-color="#00B292"/>
<stop offset="0.290505" stop-color="#2DFFD9"/>
<stop offset="0.635914" stop-color="#54FFE0"/>
<stop offset="0.978018" stop-color="#03776F"/>
</linearGradient>
<clipPath id="clip0_212_1205">
<rect width="47" height="47" fill="white"/>
</clipPath>
</defs>
</svg>
