<svg width="45" height="43" viewBox="0 0 45 43" fill="none" xmlns="http://www.w3.org/2000/svg">
<path d="M10.75 42.0625C10.5297 42.0625 10.3002 42.0074 10.0891 41.9064C9.59336 41.6586 9.28125 41.1445 9.28125 40.5938V33.149C4.30586 32.433 0.46875 28.1461 0.46875 22.9688V11.2188C0.46875 5.5457 5.07695 0.9375 10.75 0.9375H34.25C39.923 0.9375 44.5312 5.5457 44.5312 11.2188V22.9688C44.5312 28.6418 39.923 33.25 34.25 33.25H22.9865L11.6313 41.7687C11.3742 41.9615 11.0621 42.0625 10.75 42.0625ZM10.75 3.875C6.70176 3.875 3.40625 7.17051 3.40625 11.2188V22.9688C3.40625 27.017 6.70176 30.3125 10.75 30.3125C11.5578 30.3125 12.2188 30.9734 12.2188 31.7812V37.6562L21.6187 30.6063C21.8758 30.4135 22.1787 30.3125 22.5 30.3125H34.25C38.2982 30.3125 41.5938 27.017 41.5938 22.9688V11.2188C41.5938 7.17051 38.2982 3.875 34.25 3.875H10.75Z" fill="url(#paint0_linear_212_1190)"/>
<path d="M22.5 21.5C20.0674 21.5 18.0938 19.5264 18.0938 17.0938C18.0938 14.6611 20.0674 12.6875 22.5 12.6875C24.9326 12.6875 26.9062 14.6611 26.9062 17.0938C26.9062 19.5264 24.9326 21.5 22.5 21.5ZM22.5 15.625C21.6922 15.625 21.0312 16.2859 21.0312 17.0938C21.0312 17.9016 21.6922 18.5625 22.5 18.5625C23.3078 18.5625 23.9688 17.9016 23.9688 17.0938C23.9688 16.2859 23.3078 15.625 22.5 15.625Z" fill="url(#paint1_linear_212_1190)"/>
<path d="M10.75 21.5C8.31738 21.5 6.34375 19.5264 6.34375 17.0938C6.34375 14.6611 8.31738 12.6875 10.75 12.6875C13.1826 12.6875 15.1562 14.6611 15.1562 17.0938C15.1562 19.5264 13.1826 21.5 10.75 21.5ZM10.75 15.625C9.94219 15.625 9.28125 16.2859 9.28125 17.0938C9.28125 17.9016 9.94219 18.5625 10.75 18.5625C11.5578 18.5625 12.2188 17.9016 12.2188 17.0938C12.2188 16.2859 11.5578 15.625 10.75 15.625Z" fill="url(#paint2_linear_212_1190)"/>
<path d="M34.25 21.5C31.8174 21.5 29.8438 19.5264 29.8438 17.0938C29.8438 14.6611 31.8174 12.6875 34.25 12.6875C36.6826 12.6875 38.6562 14.6611 38.6562 17.0938C38.6562 19.5264 36.6826 21.5 34.25 21.5ZM34.25 15.625C33.4422 15.625 32.7812 16.2859 32.7812 17.0938C32.7812 17.9016 33.4422 18.5625 34.25 18.5625C35.0578 18.5625 35.7188 17.9016 35.7188 17.0938C35.7188 16.2859 35.0578 15.625 34.25 15.625Z" fill="url(#paint3_linear_212_1190)"/>
<defs>
<linearGradient id="paint0_linear_212_1190" x1="-11.6818" y1="-17.3819" x2="53.1106" y2="-29.1327" gradientUnits="userSpaceOnUse">
<stop stop-color="#00B292"/>
<stop offset="0.290505" stop-color="#2DFFD9"/>
<stop offset="0.635914" stop-color="#54FFE0"/>
<stop offset="0.978018" stop-color="#03776F"/>
</linearGradient>
<linearGradient id="paint1_linear_212_1190" x1="17.2491" y1="8.91071" x2="27.5253" y2="9.32345" gradientUnits="userSpaceOnUse">
<stop stop-color="#00B292"/>
<stop offset="0.290505" stop-color="#2DFFD9"/>
<stop offset="0.635914" stop-color="#54FFE0"/>
<stop offset="0.978018" stop-color="#03776F"/>
</linearGradient>
<linearGradient id="paint2_linear_212_1190" x1="5.4991" y1="8.91071" x2="15.7753" y2="9.32345" gradientUnits="userSpaceOnUse">
<stop stop-color="#00B292"/>
<stop offset="0.290505" stop-color="#2DFFD9"/>
<stop offset="0.635914" stop-color="#54FFE0"/>
<stop offset="0.978018" stop-color="#03776F"/>
</linearGradient>
<linearGradient id="paint3_linear_212_1190" x1="28.9991" y1="8.91071" x2="39.2753" y2="9.32345" gradientUnits="userSpaceOnUse">
<stop stop-color="#00B292"/>
<stop offset="0.290505" stop-color="#2DFFD9"/>
<stop offset="0.635914" stop-color="#54FFE0"/>
<stop offset="0.978018" stop-color="#03776F"/>
</linearGradient>
</defs>
</svg>
