<svg width="27" height="26" viewBox="0 0 27 26" fill="none" xmlns="http://www.w3.org/2000/svg">
<path d="M25.9817 7.64409C25.9208 6.26261 25.6974 5.31285 25.3774 4.48987C25.0472 3.6163 24.5393 2.8342 23.8739 2.18403C23.2237 1.52374 22.4364 1.01067 21.573 0.685683C20.7452 0.365658 19.8004 0.142255 18.419 0.0813455C17.0272 0.0152771 16.5853 0 13.0553 0C9.52532 0 9.08347 0.0152771 7.69683 0.076187C6.31534 0.137097 5.36559 0.360698 4.54281 0.680524C3.66904 1.01067 2.88693 1.51858 2.23676 2.18403C1.57647 2.8342 1.0636 3.62146 0.738417 4.48491C0.418392 5.31285 0.19499 6.25745 0.13408 7.63894C0.0680114 9.03074 0.0527344 9.47258 0.0527344 13.0026C0.0527344 16.5326 0.0680114 16.9744 0.128921 18.3611C0.189831 19.7425 0.413432 20.6923 0.733457 21.5153C1.0636 22.3889 1.57647 23.171 2.23676 23.8211C2.88693 24.4814 3.6742 24.9945 4.53765 25.3195C5.36559 25.6395 6.31019 25.8629 7.69187 25.9238C9.07831 25.9849 9.52036 26 13.0504 26C16.5804 26 17.0222 25.9849 18.4088 25.9238C19.7903 25.8629 20.7401 25.6395 21.5629 25.3195C23.3102 24.6439 24.6917 23.2624 25.3673 21.5153C25.6871 20.6873 25.9107 19.7425 25.9716 18.3611C26.0325 16.9744 26.0478 16.5326 26.0478 13.0026C26.0478 9.47258 26.0426 9.03074 25.9817 7.64409ZM23.6403 18.2595C23.5844 19.5293 23.3711 20.2149 23.1933 20.6721C22.7565 21.8048 21.8575 22.7037 20.7248 23.1406C20.2677 23.3184 19.577 23.5317 18.3122 23.5874C16.9409 23.6485 16.5296 23.6636 13.0605 23.6636C9.59138 23.6636 9.17494 23.6485 7.80853 23.5874C6.53875 23.5317 5.85306 23.3184 5.39594 23.1406C4.83228 22.9323 4.31921 22.6021 3.90276 22.1704C3.47103 21.7488 3.14089 21.2409 2.93256 20.6772C2.75479 20.2201 2.54151 19.5293 2.48576 18.2646C2.42465 16.8933 2.40957 16.4818 2.40957 13.0127C2.40957 9.54361 2.42465 9.12716 2.48576 7.76095C2.54151 6.49117 2.75479 5.80549 2.93256 5.34837C3.14089 4.7845 3.47103 4.27163 3.90792 3.85498C4.32932 3.42326 4.83724 3.09311 5.4011 2.88499C5.85822 2.70722 6.54906 2.49393 7.81369 2.43798C9.18505 2.37707 9.59654 2.3618 13.0654 2.3618C16.5397 2.3618 16.951 2.37707 18.3174 2.43798C19.5872 2.49393 20.2728 2.70722 20.73 2.88499C21.2936 3.09311 21.8067 3.42326 22.2231 3.85498C22.6549 4.27659 22.985 4.7845 23.1933 5.34837C23.3711 5.80549 23.5844 6.49613 23.6403 7.76095C23.7013 9.13232 23.7165 9.54361 23.7165 13.0127C23.7165 16.4818 23.7013 16.8881 23.6403 18.2595Z" fill="url(#paint0_linear_212_98)"/>
<path d="M13.055 6.32355C9.3677 6.32355 6.37598 9.31508 6.37598 13.0026C6.37598 16.6901 9.3677 19.6817 13.055 19.6817C16.7426 19.6817 19.7341 16.6901 19.7341 13.0026C19.7341 9.31508 16.7426 6.32355 13.055 6.32355ZM13.055 17.3351C10.6629 17.3351 8.7225 15.395 8.7225 13.0026C8.7225 10.6103 10.6629 8.67007 13.055 8.67007C15.4474 8.67007 17.3876 10.6103 17.3876 13.0026C17.3876 15.395 15.4474 17.3351 13.055 17.3351Z" fill="url(#paint1_linear_212_98)"/>
<path d="M21.5582 6.05944C21.5582 6.92051 20.86 7.61869 19.9987 7.61869C19.1376 7.61869 18.4395 6.92051 18.4395 6.05944C18.4395 5.19817 19.1376 4.50018 19.9987 4.50018C20.86 4.50018 21.5582 5.19817 21.5582 6.05944Z" fill="url(#paint2_linear_212_98)"/>
<defs>
<linearGradient id="paint0_linear_212_98" x1="-2.4388" y1="-11.1429" x2="27.874" y2="-9.9256" gradientUnits="userSpaceOnUse">
<stop stop-color="#00B292"/>
<stop offset="0.290505" stop-color="#2DFFD9"/>
<stop offset="0.635914" stop-color="#54FFE0"/>
<stop offset="0.978018" stop-color="#03776F"/>
</linearGradient>
<linearGradient id="paint1_linear_212_98" x1="5.09565" y1="0.598639" x2="20.6725" y2="1.22427" gradientUnits="userSpaceOnUse">
<stop stop-color="#00B292"/>
<stop offset="0.290505" stop-color="#2DFFD9"/>
<stop offset="0.635914" stop-color="#54FFE0"/>
<stop offset="0.978018" stop-color="#03776F"/>
</linearGradient>
<linearGradient id="paint2_linear_212_98" x1="18.1405" y1="3.16368" x2="21.7772" y2="3.30976" gradientUnits="userSpaceOnUse">
<stop stop-color="#00B292"/>
<stop offset="0.290505" stop-color="#2DFFD9"/>
<stop offset="0.635914" stop-color="#54FFE0"/>
<stop offset="0.978018" stop-color="#03776F"/>
</linearGradient>
</defs>
</svg>
